<?xml version="1.0" encoding="utf-8"?>
<!DOCTYPE svg PUBLIC "-//W3C//DTD SVG 1.1//EN" "http://www.w3.org/Graphics/SVG/1.1/DTD/svg11.dtd">
<svg version="1.1" xmlns="http://www.w3.org/2000/svg" xmlns:xlink="http://www.w3.org/1999/xlink" x="0px" y="0px"
	 width="50px" height="50px" viewBox="0 0 595.28 841.89" enable-background="new 0 0 595.28 841.89" xml:space="preserve">
	<rect width="595.28" height="841.89"/>
<rect x="-50000" y="-50000" width="100000" height="100000" fill="#2554C7" /><text x="100" y="100" style="text-anchor: middle;dominant-baseline: hanging;" fill="#FFFFFF" font-family="'Helvetica'" font-size="30">50 x 50</text><g id="Layer_2">
	<path fill="#FFFFFF" d="M212,539.333c-0.667-4-0.25-46.083,3.667-49c4.345-3.236,17.187,4.597,18.667,7.334
		c1.417,2.621-6.21,51.66-9.333,53C220.728,552.5,212,539.333,212,539.333z"/>
	<path fill="#FFFFFF" d="M229,585c-2.858-1.715,3.426-38.667,5.38-48.667s2.62-36.223,5.954-37.611s19.333,2.722,20.667,6
		c0.667,1.64-3.833,19.459-6.75,38.118C251.333,561.5,250,580,249,581C247,583,232.333,587,229,585z"/>
	<path fill="#FFFFFF" d="M267.667,505.722c3.177-1.959,19.333,1.277,22,4.611s-5.17,28.666-5.252,36s2.082,34.666,0,36
		s-23.877-5.821-28.748-9.333S264.334,507.776,267.667,505.722z"/>
	<path fill="#FFFFFF" d="M297.64,510.667c-4.463,1.726-11.533,49.667-7.42,55s36.78,5.334,38.78,0s-6.667-51.333-10-54
		S302.621,508.741,297.64,510.667z"/>
	<path fill="#FFFFFF" d="M327.296,511.481c-1.898,2.83-0.383,27.434,5.371,32.593c2.833,2.54,13.667,0.741,15.667-3
		s10.049-30.479,2.333-35.353C347.5,503.722,329.296,508.5,327.296,511.481z"/>
	<path fill="#FFFFFF" d="M366.334,500.905c-1.587-2.187-8.918,1.345-9.584,5.345c-0.3,1.801,0.554,12.299-0.637,22.479
		C355,538.25,350,544.743,353,547.333c3.954,3.414,17.334-10,19.334-13.333S370.861,507.144,366.334,500.905z"/>
	<path fill="#FFFFFF" d="M150.333,430c-12.408-15.756-16.667-54,0-80s49.19-66.639,92.667-83.333
		c30.747-11.806,42.668-13.333,59.334-14s45.197,6.993,65.333,23.333c20.333,16.5,49.334,68.667,56.667,104
		s11.333,75.334-20.667,94.667s-62.001,38.667-124.667,26C216.333,488,192.333,483.334,150.333,430z M197,389
		c-8.125,6.5-15.5,26.5-9.5,43.5s14.5,29.5,26.5,29s25.833-14,30.667-29s8.833-21-5.167-35S207,381,197,389z M264.95,438
		c-2.705,4.974,0.683,16-2.883,21s-5.761,5.5-7.914,8.5s-2.153,16,3.398,17.5c6.777,1.831,4.515-15,11.949-16
		c8.438-1.135,6.753,9.007,8.5,12.5c1.25,2.5,10.25,7,13.22,3.537c4.818-5.617,4.538-13.007,0-19.522
		c-2.97-4.265-8.446-5.964-11.603-9.787c-3.632-4.398-3.117-12.505-5.197-14.728C271.868,438.273,266.738,434.712,264.95,438z
		 M319,458.5c7,4.004,16.5,5.5,25.555,3S374.5,442,385.5,413.945S384,363.5,378,356s-22.5-14-41.704-10.5
		c-19.205,3.5-37.057,39.484-36.379,63.5C300.834,441.5,312.548,454.81,319,458.5z"/>
</g>
</svg>
