<?xml version="1.0" encoding="utf-8"?>
<!DOCTYPE svg PUBLIC "-//W3C//DTD SVG 1.1//EN" "http://www.w3.org/Graphics/SVG/1.1/DTD/svg11.dtd">
<svg version="1.1" xmlns="http://www.w3.org/2000/svg" xmlns:xlink="http://www.w3.org/1999/xlink" x="0px" y="0px"
	 width="200px" height="300px" viewBox="0 0 595.28 841.89" enable-background="new 0 0 595.28 841.89" xml:space="preserve">
	<rect width="595.28" height="841.89"/>
<rect x="-50000" y="-50000" width="100000" height="100000" fill="#purple" /><text x="100" y="100" style="text-anchor: middle;dominant-baseline: hanging;" fill="#FFFFFF" font-family="'Helvetica'" font-size="30">200 x 300</text><g id="Layer_2">
	<path fill="#FFFFFF" d="M167.648,439.334c5.667,5.667,7.667,43,2.667,52.666c-5.054,9.771-116-57-70-57
		S160.963,432.648,167.648,439.334z"/>
	<path fill="#FFFFFF" d="M407.352,439.334c-5.666,5.667-7.666,43-2.666,52.666c5.053,9.771,116-57,70-57
		S414.037,432.648,407.352,439.334z"/>
	<path fill="#FFFFFF" d="M369,594v36H207v-36h-29c0,0-7.546,44.454,2,54c38.184,38.184,177.816,38.184,216,0c9.546-9.546,2-54,2-54
		H369z"/>
	<rect x="218" y="549" fill="#FFFFFF" width="27" height="72"/>
	<rect x="256" y="549" fill="#FFFFFF" width="27" height="72"/>
	<rect x="331" y="549" fill="#FFFFFF" width="27" height="72"/>
	<rect x="294" y="549" fill="#FFFFFF" width="27" height="72"/>
	<path fill="#FFFFFF" d="M396,420c-7.839,7.839,0,156,0,156h-27v-36H207v36h-27c0,0,9.893-146.107,0-156
		c-7.077-7.077-88.908,4.092-108-15c-19-19-25.674-235.326,0-261c24.9-24.9,407.5-24.5,432,0c26.342,26.341,16.5,244.5,0,261
		C488.027,420.973,403.441,412.559,396,420z M263.5,432c1.75,3.5,2.25,5,6.75,3.75s10.75-15.75,12.5-19.5s4.25-2.75,5.75-0.25
		s5,17.25,7.75,18.75s6.75,0,8.5-4.25c3.365-8.173,2.25-47-1.082-50.25c-3.333-3.25-11.168-5.75-18.918-5.75
		s-19.673,4.137-21.25,9.5C261,392.5,261.75,428.5,263.5,432z M312,325c4.5,14.5,9.5,20.5,44,23.5s89-12.5,97.5-21s14-29.5,1-48.5
		s-120.384-14.081-132-6C311,281,307.5,310.5,312,325z M246.842,273c-11.616-8.081-119-13-132,6s-7.5,40,1,48.5s63,24,97.5,21
		s39.5-9,44-23.5S258.342,281,246.842,273z"/>
</g>
</svg>
