<?xml version="1.0" encoding="utf-8"?>
<!DOCTYPE svg PUBLIC "-//W3C//DTD SVG 1.1//EN" "http://www.w3.org/Graphics/SVG/1.1/DTD/svg11.dtd">
<svg version="1.1" xmlns="http://www.w3.org/2000/svg" xmlns:xlink="http://www.w3.org/1999/xlink" x="0px" y="0px"
	 width="50px" height="50px" viewBox="0 0 595.28 841.89" enable-background="new 0 0 595.28 841.89" xml:space="preserve">
	<rect width="595.28" height="841.89"/>
<rect x="-50000" y="-50000" width="100000" height="100000" fill="#8D38C9" /><text x="100" y="100" style="text-anchor: middle;dominant-baseline: hanging;" fill="#FFFFFF" font-family="'Helvetica'" font-size="30">50 x 50</text><g id="Layer_1">
	<g>
		<path fill="#FFFFFF" d="M468,459.496c0,4.677-3.827,8.504-8.504,8.504h-18.992c-4.677,0-8.504,3.827-8.504,8.504v108.992
			c0,4.677,0,12.331,0,17.008v18.992c0,4.677-3.827,8.504-8.504,8.504h-9.992c-4.677,0-8.504-3.827-8.504-8.504v-18.992
			c0-4.677-3.827-8.504-8.504-8.504h-0.992c-4.677,0-8.504,3.827-8.504,8.504v18.992c0,4.677-3.827,8.504-8.504,8.504h-0.992
			c-4.677,0-8.504-3.827-8.504-8.504v-18.992c0-4.677-3.827-8.504-8.504-8.504h-0.992c-4.677,0-8.504,3.827-8.504,8.504v18.992
			c0,4.677-3.827,8.504-8.504,8.504h-0.992c-4.677,0-8.504-3.827-8.504-8.504v-18.992c0-4.677-3.827-8.504-8.504-8.504h-0.992
			c-4.677,0-8.504,3.827-8.504,8.504v18.992c0,4.677-3.827,8.504-8.504,8.504h-0.992c-4.677,0-8.504-3.827-8.504-8.504v-18.992
			c0-4.677-3.827-8.504-8.504-8.504h-0.992c-4.677,0-8.504,3.827-8.504,8.504v18.992c0,4.677-3.827,8.504-8.504,8.504h-0.992
			c-4.677,0-8.504-3.827-8.504-8.504v-18.992c0-4.677-3.827-8.504-8.504-8.504h-0.992c-4.677,0-8.504,3.827-8.504,8.504v18.992
			c0,4.677-3.827,8.504-8.504,8.504h-0.992c-4.677,0-8.504-3.827-8.504-8.504v-18.992c0-4.677-3.827-8.504-8.504-8.504h-0.992
			c-4.677,0-8.504,3.827-8.504,8.504v18.992c0,4.677-3.827,8.504-8.504,8.504h-0.992c-4.677,0-8.504-3.827-8.504-8.504v-18.992
			c0-4.677-3.827-8.504-8.504-8.504h-0.992c-4.677,0-8.504,3.827-8.504,8.504v18.992c0,4.677-3.827,8.504-8.504,8.504h-9.992
			c-4.677,0-8.504-3.827-8.504-8.504v-18.992c0-4.677,0-12.331,0-17.008V476.504c0-4.677-3.827-8.504-8.504-8.504h-18.992
			c-4.677,0-8.504-3.827-8.504-8.504V260.504c0-4.677,3.827-8.504,8.504-8.504h18.992c4.677,0,8.504-3.827,8.504-8.504v-63.992
			c0-4.677,3.827-8.504,8.504-8.504h270.992c4.677,0,8.504,3.827,8.504,8.504v63.992c0,4.677,3.827,8.504,8.504,8.504h18.992
			c4.677,0,8.504,3.827,8.504,8.504V459.496z M310.5,459c-2.475,0-4.5-3.827-4.5-8.504v-18.992c0-4.677-3.827-8.504-8.504-8.504
			h-18.992c-4.677,0-8.504,3.827-8.504,8.504v18.992c0,4.677-2.025,8.504-4.5,8.504s-4.5,3.827-4.5,8.504v27.992
			c0,4.677,3.827,8.504,8.504,8.504h0.992c4.677,0,8.504-2.025,8.504-4.5s3.827-4.5,8.504-4.5h0.992c4.677,0,8.504,2.025,8.504,4.5
			s3.827,4.5,8.504,4.5h0.992c4.677,0,8.504-3.827,8.504-8.504v-27.992C315,462.827,312.975,459,310.5,459z M270,332.504
			c0-4.677-3.827-8.504-8.504-8.504H134.504c-4.677,0-8.504,3.827-8.504,8.504v54.992c0,4.677,3.827,8.504,8.504,8.504h126.992
			c4.677,0,8.504-3.827,8.504-8.504V332.504z M450,332.504c0-4.677-3.827-8.504-8.504-8.504H314.504
			c-4.677,0-8.504,3.827-8.504,8.504v54.992c0,4.677,3.827,8.504,8.504,8.504h126.992c4.677,0,8.504-3.827,8.504-8.504V332.504z"/>
	</g>
</g>
</svg>
